<svg xmlns="http://www.w3.org/2000/svg" width="24.53" height="24.5" viewBox="0 0 24.53 24.5">
  <defs>
    <style>
      .cls-1 {
        fill: #68c;
        fill-rule: evenodd;
      }
    </style>
  </defs>
  <path id="pencil.svg" class="cls-1" d="M1183.18,82.232l-2.47,2.466-3.52-3.523,2.46-2.466A2.494,2.494,0,0,1,1183.18,82.232Zm-1.41,2.819a0.5,0.5,0,0,1,.7.7l-9.16,9.161a0.5,0.5,0,0,1-.7-0.7l5.99-5.99-4.94-4.933,2.12-2.114,4.93,4.933Zm-8.11-.352,3.53,3.524-11.1,11.094-3.52-3.523,11.21-11.213Zm-14.26,17.789,2.47-5.99,3.52,3.523Z" transform="translate(-1159.41 -78)"/>
</svg>
